<?xml version="1.0" encoding="utf-8"?>
<svg xmlns="http://www.w3.org/2000/svg" viewBox="0 0 80 80" width="60" height="60">
  <path d="M14 10L14 14L16 14L16 12L64 12L64 14L66 14L66 10L14 10 z M 10 16L10 20L12 20L12 18L68 18L68 20L70 20L70 16L10 16 z M 6 22L6 23L6 69L74 69L74 22L6 22 z M 8 24L72 24L72 67L8 67L8 24 z M 12 28 A 1 1 0 0 0 11 29 A 1 1 0 0 0 12 30 A 1 1 0 0 0 13 29 A 1 1 0 0 0 12 28 z M 16 28 A 1 1 0 0 0 15 29 A 1 1 0 0 0 16 30 A 1 1 0 0 0 17 29 A 1 1 0 0 0 16 28 z M 20 28 A 1 1 0 0 0 19 29 A 1 1 0 0 0 20 30 A 1 1 0 0 0 21 29 A 1 1 0 0 0 20 28 z M 24 28 A 1 1 0 0 0 23 29 A 1 1 0 0 0 24 30 A 1 1 0 0 0 25 29 A 1 1 0 0 0 24 28 z M 28 28 A 1 1 0 0 0 27 29 A 1 1 0 0 0 28 30 A 1 1 0 0 0 29 29 A 1 1 0 0 0 28 28 z M 32 28 A 1 1 0 0 0 31 29 A 1 1 0 0 0 32 30 A 1 1 0 0 0 33 29 A 1 1 0 0 0 32 28 z M 36 28 A 1 1 0 0 0 35 29 A 1 1 0 0 0 36 30 A 1 1 0 0 0 37 29 A 1 1 0 0 0 36 28 z M 40 28 A 1 1 0 0 0 39 29 A 1 1 0 0 0 40 30 A 1 1 0 0 0 41 29 A 1 1 0 0 0 40 28 z M 44 28 A 1 1 0 0 0 43 29 A 1 1 0 0 0 44 30 A 1 1 0 0 0 45 29 A 1 1 0 0 0 44 28 z M 48 28 A 1 1 0 0 0 47 29 A 1 1 0 0 0 48 30 A 1 1 0 0 0 49 29 A 1 1 0 0 0 48 28 z M 52 28 A 1 1 0 0 0 51 29 A 1 1 0 0 0 52 30 A 1 1 0 0 0 53 29 A 1 1 0 0 0 52 28 z M 56 28 A 1 1 0 0 0 55 29 A 1 1 0 0 0 56 30 A 1 1 0 0 0 57 29 A 1 1 0 0 0 56 28 z M 60 28 A 1 1 0 0 0 59 29 A 1 1 0 0 0 60 30 A 1 1 0 0 0 61 29 A 1 1 0 0 0 60 28 z M 64 28 A 1 1 0 0 0 63 29 A 1 1 0 0 0 64 30 A 1 1 0 0 0 65 29 A 1 1 0 0 0 64 28 z M 68 28 A 1 1 0 0 0 67 29 A 1 1 0 0 0 68 30 A 1 1 0 0 0 69 29 A 1 1 0 0 0 68 28 z M 34 36 A 1 1 0 0 0 33 37 A 1 1 0 0 0 33 37.003906L33 45L33 52.996094 A 1 1 0 0 0 33 53 A 1 1 0 0 0 34 54 A 1 1 0 0 0 34.541016 53.841797L48.455078 45.890625L48.455078 45.888672 A 1 1 0 0 0 49 45 A 1 1 0 0 0 48.455078 44.111328L48.455078 44.109375L34.541016 36.158203 A 1 1 0 0 0 34.527344 36.150391 A 1 1 0 0 0 34 36 z M 12 61 A 1 1 0 0 0 11 62 A 1 1 0 0 0 12 63 A 1 1 0 0 0 13 62 A 1 1 0 0 0 12 61 z M 16 61 A 1 1 0 0 0 15 62 A 1 1 0 0 0 16 63 A 1 1 0 0 0 17 62 A 1 1 0 0 0 16 61 z M 20 61 A 1 1 0 0 0 19 62 A 1 1 0 0 0 20 63 A 1 1 0 0 0 21 62 A 1 1 0 0 0 20 61 z M 24 61 A 1 1 0 0 0 23 62 A 1 1 0 0 0 24 63 A 1 1 0 0 0 25 62 A 1 1 0 0 0 24 61 z M 28 61 A 1 1 0 0 0 27 62 A 1 1 0 0 0 28 63 A 1 1 0 0 0 29 62 A 1 1 0 0 0 28 61 z M 32 61 A 1 1 0 0 0 31 62 A 1 1 0 0 0 32 63 A 1 1 0 0 0 33 62 A 1 1 0 0 0 32 61 z M 36 61 A 1 1 0 0 0 35 62 A 1 1 0 0 0 36 63 A 1 1 0 0 0 37 62 A 1 1 0 0 0 36 61 z M 40 61 A 1 1 0 0 0 39 62 A 1 1 0 0 0 40 63 A 1 1 0 0 0 41 62 A 1 1 0 0 0 40 61 z M 44 61 A 1 1 0 0 0 43 62 A 1 1 0 0 0 44 63 A 1 1 0 0 0 45 62 A 1 1 0 0 0 44 61 z M 48 61 A 1 1 0 0 0 47 62 A 1 1 0 0 0 48 63 A 1 1 0 0 0 49 62 A 1 1 0 0 0 48 61 z M 52 61 A 1 1 0 0 0 51 62 A 1 1 0 0 0 52 63 A 1 1 0 0 0 53 62 A 1 1 0 0 0 52 61 z M 56 61 A 1 1 0 0 0 55 62 A 1 1 0 0 0 56 63 A 1 1 0 0 0 57 62 A 1 1 0 0 0 56 61 z M 60 61 A 1 1 0 0 0 59 62 A 1 1 0 0 0 60 63 A 1 1 0 0 0 61 62 A 1 1 0 0 0 60 61 z M 64 61 A 1 1 0 0 0 63 62 A 1 1 0 0 0 64 63 A 1 1 0 0 0 65 62 A 1 1 0 0 0 64 61 z M 68 61 A 1 1 0 0 0 67 62 A 1 1 0 0 0 68 63 A 1 1 0 0 0 69 62 A 1 1 0 0 0 68 61 z" fill="#000000" />
</svg>