<?xml version="1.0" encoding="utf-8"?>
<svg xmlns="http://www.w3.org/2000/svg" viewBox="0 0 80 80" width="60" height="60">
  <path d="M40 7C23.902344 7 10.484375 18.546875 7.585938 33.8125L7.363281 35L19.59375 35L19.796875 34.269531C22.289063 25.460938 30.378906 19 40 19C48.023438 19 54.898438 23.546875 58.4375 30.152344L51.585938 37L74 37L74 14.585938L67.183594 21.402344C61.242188 12.726563 51.304688 7 40 7 Z M 40 9C51.050781 9 60.726563 14.777344 66.214844 23.472656L66.882813 24.53125L67.765625 23.644531L72 19.414063L72 35L56.414063 35L60.933594 30.480469L60.617188 29.839844C56.863281 22.234375 49.042969 17 40 17C29.757813 17 21.113281 23.730469 18.144531 33L9.886719 33C13.070313 19.269531 25.289063 9 40 9 Z M 40 11C39.449219 11 39 11.449219 39 12C39 12.550781 39.449219 13 40 13C40.550781 13 41 12.550781 41 12C41 11.449219 40.550781 11 40 11 Z M 34.542969 11.535156C34.472656 11.535156 34.40625 11.542969 34.34375 11.558594C33.800781 11.664063 33.449219 12.191406 33.558594 12.734375C33.609375 12.992188 33.761719 13.222656 33.980469 13.371094C34.203125 13.515625 34.472656 13.570313 34.734375 13.519531C35.273438 13.410156 35.625 12.886719 35.515625 12.34375C35.425781 11.875 35.015625 11.539063 34.542969 11.535156 Z M 45.488281 11.535156C45 11.523438 44.578125 11.863281 44.484375 12.34375C44.375 12.882813 44.726563 13.410156 45.265625 13.515625C45.527344 13.570313 45.796875 13.515625 46.019531 13.367188C46.238281 13.21875 46.390625 12.992188 46.441406 12.730469C46.550781 12.1875 46.199219 11.664063 45.65625 11.554688C45.601563 11.542969 45.546875 11.539063 45.488281 11.535156 Z M 50.734375 13.128906C50.324219 13.121094 49.949219 13.363281 49.792969 13.746094C49.578125 14.257813 49.820313 14.839844 50.332031 15.050781C50.84375 15.265625 51.425781 15.023438 51.640625 14.511719C51.851563 14 51.609375 13.417969 51.097656 13.203125C50.984375 13.15625 50.859375 13.132813 50.734375 13.128906 Z M 29.292969 13.128906C29.160156 13.128906 29.027344 13.15625 28.902344 13.207031C28.390625 13.417969 28.148438 14.003906 28.359375 14.515625C28.574219 15.023438 29.15625 15.265625 29.667969 15.054688C30.179688 14.84375 30.421875 14.257813 30.207031 13.75C30.054688 13.378906 29.695313 13.132813 29.292969 13.128906 Z M 55.574219 15.71875C55.234375 15.710938 54.914063 15.878906 54.722656 16.160156C54.417969 16.621094 54.542969 17.242188 55 17.546875C55.460938 17.855469 56.078125 17.730469 56.386719 17.273438C56.535156 17.054688 56.589844 16.78125 56.535156 16.523438C56.484375 16.261719 56.332031 16.03125 56.109375 15.886719C55.953125 15.777344 55.765625 15.71875 55.574219 15.71875 Z M 24.453125 15.71875C24.253906 15.714844 24.054688 15.773438 23.890625 15.886719C23.429688 16.195313 23.304688 16.8125 23.613281 17.273438C23.921875 17.730469 24.539063 17.855469 25 17.546875C25.457031 17.242188 25.582031 16.621094 25.277344 16.160156C25.09375 15.886719 24.785156 15.722656 24.453125 15.71875 Z M 20.214844 19.203125C19.945313 19.199219 19.683594 19.304688 19.496094 19.496094C19.105469 19.882813 19.105469 20.519531 19.496094 20.90625C19.882813 21.296875 20.519531 21.296875 20.90625 20.90625C21.296875 20.519531 21.296875 19.882813 20.90625 19.496094C20.722656 19.308594 20.476563 19.203125 20.214844 19.203125 Z M 59.8125 19.203125C59.542969 19.199219 59.28125 19.304688 59.09375 19.496094C58.703125 19.882813 58.703125 20.519531 59.09375 20.90625C59.480469 21.296875 60.117188 21.296875 60.503906 20.90625C60.894531 20.519531 60.894531 19.882813 60.503906 19.496094C60.320313 19.308594 60.074219 19.203125 59.8125 19.203125 Z M 63.292969 23.441406C63.089844 23.4375 62.890625 23.5 62.722656 23.609375C62.265625 23.917969 62.140625 24.539063 62.449219 25C62.757813 25.457031 63.375 25.582031 63.835938 25.273438C64.296875 24.96875 64.417969 24.347656 64.113281 23.886719C63.929688 23.613281 63.625 23.445313 63.292969 23.441406 Z M 16.738281 23.441406C16.398438 23.4375 16.078125 23.605469 15.890625 23.886719C15.582031 24.347656 15.707031 24.964844 16.164063 25.273438C16.625 25.582031 17.242188 25.457031 17.550781 25C17.859375 24.539063 17.734375 23.917969 17.277344 23.609375C17.117188 23.503906 16.929688 23.445313 16.738281 23.441406 Z M 14.15625 28.285156C13.742188 28.277344 13.367188 28.519531 13.207031 28.902344C12.996094 29.414063 13.238281 29.996094 13.75 30.207031C14.261719 30.421875 14.84375 30.179688 15.058594 29.667969C15.15625 29.421875 15.15625 29.148438 15.054688 28.902344C14.953125 28.65625 14.757813 28.460938 14.515625 28.359375C14.398438 28.3125 14.277344 28.289063 14.15625 28.285156 Z M 7 43L7 65.414063L13.28125 59.136719C19.265625 67.480469 28.953125 73 40 73C56.097656 73 69.515625 61.453125 72.410156 46.1875L72.636719 45L60.40625 45L60.203125 45.730469C57.710938 54.539063 49.621094 61 40 61C32.242188 61 25.554688 56.742188 21.921875 50.496094L29.414063 43 Z M 9 45L24.585938 45L19.386719 50.203125L19.734375 50.855469C23.613281 58.082031 31.234375 63 40 63C50.242188 63 58.886719 56.269531 61.855469 47L70.113281 47C66.929688 60.730469 54.710938 71 40 71C29.203125 71 19.714844 65.480469 14.167969 57.113281L13.488281 56.09375L9 60.585938 Z M 65.890625 49.714844C65.476563 49.703125 65.101563 49.949219 64.945313 50.328125C64.734375 50.839844 64.976563 51.425781 65.484375 51.636719C65.996094 51.847656 66.582031 51.605469 66.792969 51.09375C67.003906 50.585938 66.761719 50 66.25 49.789063C66.136719 49.742188 66.015625 49.714844 65.890625 49.714844 Z M 16.734375 54.554688C16.53125 54.550781 16.332031 54.609375 16.164063 54.722656C15.941406 54.871094 15.789063 55.097656 15.738281 55.359375C15.6875 55.621094 15.742188 55.890625 15.890625 56.109375C16.195313 56.570313 16.816406 56.695313 17.277344 56.386719C17.734375 56.082031 17.859375 55.460938 17.550781 55C17.371094 54.726563 17.0625 54.558594 16.734375 54.554688 Z M 63.300781 54.554688C62.960938 54.546875 62.640625 54.714844 62.453125 55C62.304688 55.21875 62.25 55.488281 62.300781 55.75C62.351563 56.011719 62.503906 56.238281 62.726563 56.386719C63.1875 56.691406 63.808594 56.570313 64.113281 56.109375C64.421875 55.648438 64.296875 55.03125 63.839844 54.722656C63.679688 54.617188 63.492188 54.558594 63.300781 54.554688 Z M 20.214844 58.796875C19.945313 58.792969 19.683594 58.898438 19.492188 59.09375C19.101563 59.480469 19.101563 60.117188 19.492188 60.503906C19.882813 60.894531 20.515625 60.894531 20.90625 60.503906C21.296875 60.117188 21.296875 59.480469 20.90625 59.09375C20.722656 58.90625 20.476563 58.804688 20.214844 58.796875 Z M 59.8125 58.796875C59.542969 58.796875 59.28125 58.902344 59.09375 59.09375C58.703125 59.480469 58.703125 60.117188 59.09375 60.503906C59.480469 60.894531 60.117188 60.894531 60.503906 60.503906C60.894531 60.117188 60.894531 59.480469 60.503906 59.09375C60.320313 58.90625 60.074219 58.800781 59.8125 58.796875 Z M 24.464844 62.28125C24.121094 62.273438 23.800781 62.441406 23.613281 62.722656C23.304688 63.183594 23.429688 63.804688 23.890625 64.109375C24.109375 64.257813 24.378906 64.3125 24.640625 64.261719C24.902344 64.207031 25.128906 64.054688 25.277344 63.832031C25.582031 63.375 25.460938 62.753906 25 62.449219C24.839844 62.339844 24.65625 62.28125 24.464844 62.28125 Z M 55.566406 62.28125C55.367188 62.277344 55.167969 62.335938 55 62.449219C54.542969 62.753906 54.417969 63.375 54.726563 63.832031C55.035156 64.292969 55.652344 64.417969 56.113281 64.109375C56.570313 63.800781 56.695313 63.183594 56.390625 62.722656C56.207031 62.449219 55.898438 62.28125 55.566406 62.28125 Z M 29.308594 64.867188C28.894531 64.859375 28.519531 65.101563 28.363281 65.484375C28.152344 65.996094 28.394531 66.578125 28.90625 66.792969C29.414063 67.003906 30 66.761719 30.210938 66.25C30.421875 65.738281 30.179688 65.15625 29.671875 64.941406C29.554688 64.894531 29.433594 64.871094 29.308594 64.867188 Z M 50.722656 64.867188C50.589844 64.867188 50.457031 64.890625 50.332031 64.941406C49.824219 65.15625 49.582031 65.738281 49.792969 66.25C50.003906 66.761719 50.589844 67.003906 51.097656 66.792969C51.609375 66.578125 51.851563 65.996094 51.640625 65.484375C51.488281 65.113281 51.125 64.871094 50.722656 64.867188 Z M 34.5625 66.464844C34.078125 66.449219 33.652344 66.789063 33.558594 67.265625C33.449219 67.808594 33.800781 68.335938 34.34375 68.441406C34.886719 68.550781 35.410156 68.199219 35.519531 67.65625C35.570313 67.398438 35.519531 67.128906 35.371094 66.90625C35.222656 66.6875 34.996094 66.53125 34.734375 66.480469C34.679688 66.46875 34.621094 66.464844 34.5625 66.464844 Z M 45.46875 66.464844C45.402344 66.460938 45.335938 66.46875 45.269531 66.484375C44.726563 66.589844 44.375 67.117188 44.484375 67.65625C44.59375 68.199219 45.117188 68.550781 45.660156 68.441406C46.203125 68.335938 46.554688 67.808594 46.445313 67.265625C46.351563 66.800781 45.945313 66.464844 45.46875 66.464844 Z M 40 67C39.449219 67 39 67.449219 39 68C39 68.550781 39.449219 69 40 69C40.550781 69 41 68.550781 41 68C41 67.449219 40.550781 67 40 67Z" />
</svg>