<?xml version="1.0" encoding="utf-8"?>
<svg xmlns="http://www.w3.org/2000/svg" viewBox="0 0 80 80" width="60" height="60">
  <path d="M13 11C10.802666 11 9 12.802666 9 15L9 65C9 67.197334 10.802666 69 13 69L67 69C69.197334 69 71 67.197334 71 65L71 15C71 12.802666 69.197334 11 67 11L13 11 z M 13 13L67 13C68.116666 13 69 13.883334 69 15L69 65C69 66.116666 68.116666 67 67 67L13 67C11.883334 67 11 66.116666 11 65L11 15C11 13.883334 11.883334 13 13 13 z M 30 15 A 1 1 0 0 0 29 16 A 1 1 0 0 0 30 17 A 1 1 0 0 0 31 16 A 1 1 0 0 0 30 15 z M 50 15 A 1 1 0 0 0 49 16 A 1 1 0 0 0 50 17 A 1 1 0 0 0 51 16 A 1 1 0 0 0 50 15 z M 30 19 A 1 1 0 0 0 29 20 A 1 1 0 0 0 30 21 A 1 1 0 0 0 31 20 A 1 1 0 0 0 30 19 z M 50 19 A 1 1 0 0 0 49 20 A 1 1 0 0 0 50 21 A 1 1 0 0 0 51 20 A 1 1 0 0 0 50 19 z M 30 23 A 1 1 0 0 0 29 24 A 1 1 0 0 0 30 25 A 1 1 0 0 0 31 24 A 1 1 0 0 0 30 23 z M 50 23 A 1 1 0 0 0 49 24 A 1 1 0 0 0 50 25 A 1 1 0 0 0 51 24 A 1 1 0 0 0 50 23 z M 30 27 A 1 1 0 0 0 29 28 A 1 1 0 0 0 30 29 A 1 1 0 0 0 31 28 A 1 1 0 0 0 30 27 z M 50 27 A 1 1 0 0 0 49 28 A 1 1 0 0 0 50 29 A 1 1 0 0 0 51 28 A 1 1 0 0 0 50 27 z M 30 31 A 1 1 0 0 0 29 32 A 1 1 0 0 0 30 33 A 1 1 0 0 0 31 32 A 1 1 0 0 0 30 31 z M 50 31 A 1 1 0 0 0 49 32 A 1 1 0 0 0 50 33 A 1 1 0 0 0 51 32 A 1 1 0 0 0 50 31 z M 30 35 A 1 1 0 0 0 29 36 A 1 1 0 0 0 30 37 A 1 1 0 0 0 31 36 A 1 1 0 0 0 30 35 z M 50 35 A 1 1 0 0 0 49 36 A 1 1 0 0 0 50 37 A 1 1 0 0 0 51 36 A 1 1 0 0 0 50 35 z M 14 39 A 1 1 0 0 0 13 40 A 1 1 0 0 0 14 41 A 1 1 0 0 0 15 40 A 1 1 0 0 0 14 39 z M 18 39 A 1 1 0 0 0 17 40 A 1 1 0 0 0 18 41 A 1 1 0 0 0 19 40 A 1 1 0 0 0 18 39 z M 22 39 A 1 1 0 0 0 21 40 A 1 1 0 0 0 22 41 A 1 1 0 0 0 23 40 A 1 1 0 0 0 22 39 z M 26 39 A 1 1 0 0 0 25 40 A 1 1 0 0 0 26 41 A 1 1 0 0 0 27 40 A 1 1 0 0 0 26 39 z M 30 39 A 1 1 0 0 0 29 40 A 1 1 0 0 0 30 41 A 1 1 0 0 0 31 40 A 1 1 0 0 0 30 39 z M 34 39 A 1 1 0 0 0 33 40 A 1 1 0 0 0 34 41 A 1 1 0 0 0 35 40 A 1 1 0 0 0 34 39 z M 38 39 A 1 1 0 0 0 37 40 A 1 1 0 0 0 38 41 A 1 1 0 0 0 39 40 A 1 1 0 0 0 38 39 z M 42 39 A 1 1 0 0 0 41 40 A 1 1 0 0 0 42 41 A 1 1 0 0 0 43 40 A 1 1 0 0 0 42 39 z M 46 39 A 1 1 0 0 0 45 40 A 1 1 0 0 0 46 41 A 1 1 0 0 0 47 40 A 1 1 0 0 0 46 39 z M 50 39 A 1 1 0 0 0 49 40 A 1 1 0 0 0 50 41 A 1 1 0 0 0 51 40 A 1 1 0 0 0 50 39 z M 54 39 A 1 1 0 0 0 53 40 A 1 1 0 0 0 54 41 A 1 1 0 0 0 55 40 A 1 1 0 0 0 54 39 z M 58 39 A 1 1 0 0 0 57 40 A 1 1 0 0 0 58 41 A 1 1 0 0 0 59 40 A 1 1 0 0 0 58 39 z M 62 39 A 1 1 0 0 0 61 40 A 1 1 0 0 0 62 41 A 1 1 0 0 0 63 40 A 1 1 0 0 0 62 39 z M 66 39 A 1 1 0 0 0 65 40 A 1 1 0 0 0 66 41 A 1 1 0 0 0 67 40 A 1 1 0 0 0 66 39 z M 30 43 A 1 1 0 0 0 29 44 A 1 1 0 0 0 30 45 A 1 1 0 0 0 31 44 A 1 1 0 0 0 30 43 z M 50 43 A 1 1 0 0 0 49 44 A 1 1 0 0 0 50 45 A 1 1 0 0 0 51 44 A 1 1 0 0 0 50 43 z M 30 47 A 1 1 0 0 0 29 48 A 1 1 0 0 0 30 49 A 1 1 0 0 0 31 48 A 1 1 0 0 0 30 47 z M 50 47 A 1 1 0 0 0 49 48 A 1 1 0 0 0 50 49 A 1 1 0 0 0 51 48 A 1 1 0 0 0 50 47 z M 30 51 A 1 1 0 0 0 29 52 A 1 1 0 0 0 30 53 A 1 1 0 0 0 31 52 A 1 1 0 0 0 30 51 z M 50 51 A 1 1 0 0 0 49 52 A 1 1 0 0 0 50 53 A 1 1 0 0 0 51 52 A 1 1 0 0 0 50 51 z M 30 55 A 1 1 0 0 0 29 56 A 1 1 0 0 0 30 57 A 1 1 0 0 0 31 56 A 1 1 0 0 0 30 55 z M 50 55 A 1 1 0 0 0 49 56 A 1 1 0 0 0 50 57 A 1 1 0 0 0 51 56 A 1 1 0 0 0 50 55 z M 30 59 A 1 1 0 0 0 29 60 A 1 1 0 0 0 30 61 A 1 1 0 0 0 31 60 A 1 1 0 0 0 30 59 z M 50 59 A 1 1 0 0 0 49 60 A 1 1 0 0 0 50 61 A 1 1 0 0 0 51 60 A 1 1 0 0 0 50 59 z M 30 63 A 1 1 0 0 0 29 64 A 1 1 0 0 0 30 65 A 1 1 0 0 0 31 64 A 1 1 0 0 0 30 63 z M 50 63 A 1 1 0 0 0 49 64 A 1 1 0 0 0 50 65 A 1 1 0 0 0 51 64 A 1 1 0 0 0 50 63 z" />
</svg>