<?xml version="1.0" encoding="utf-8"?>
<svg xmlns="http://www.w3.org/2000/svg" viewBox="0 0 80 80" width="60" height="60">
  <path d="M40 13C32.082031 13 25.242188 18.46875 23.457031 26.109375C18.585938 26.734375 14.597656 30.265625 13.386719 35.015625C5.949219 35.335938 0 41.484375 0 49C0 56.71875 6.28125 63 14 63L36 63L36 61L14 61C7.382813 61 2 55.617188 2 49C2 42.386719 7.378906 37 14.019531 37L14.027344 37L15.019531 37.023438L15.023438 37C15.566406 36.984375 16 36.542969 16 36C16 35.621094 15.785156 35.273438 15.441406 35.105469C16.632813 31.15625 20.148438 28.304688 24.347656 28.035156L24.925781 28C24.949219 28 24.976563 28 25 28C25.550781 28 26 27.550781 26 27C26 26.652344 25.816406 26.328125 25.519531 26.144531C27.246094 19.628906 33.164063 15 40 15C46.199219 15 51.835938 18.90625 54.027344 24.722656L54.03125 24.746094C54.011719 24.828125 54 24.914063 54 25C54 25.550781 54.449219 26 55 26C55.472656 26 55.882813 25.664063 55.980469 25.203125C56.664063 25.082031 57.34375 25 58 25C64.617188 25 70 30.382813 70 37C70 37.996094 69.863281 39.023438 69.59375 40.058594L69.328125 41.046875L70.328125 41.28125C74.84375 42.359375 78 46.355469 78 51C78 56.515625 73.515625 61 68 61L46 61L46 63L68 63C74.617188 63 80 57.617188 80 51C80 45.761719 76.652344 41.207031 71.746094 39.609375C71.914063 38.730469 72 37.855469 72 37C72 29.28125 65.71875 23 58 23C57.207031 23 56.394531 23.074219 55.574219 23.222656C52.894531 17.074219 46.738281 13 40 13 Z M 29 26C28.449219 26 28 26.449219 28 27C28 27.550781 28.449219 28 29 28C29.550781 28 30 27.550781 30 27C30 26.449219 29.550781 26 29 26 Z M 33 28C32.449219 28 32 28.449219 32 29C32 29.550781 32.449219 30 33 30C33.550781 30 34 29.550781 34 29C34 28.449219 33.550781 28 33 28 Z M 56 28C55.449219 28 55 28.449219 55 29C55 29.550781 55.449219 30 56 30C56.550781 30 57 29.550781 57 29C57 28.449219 56.550781 28 56 28 Z M 36 31C35.449219 31 35 31.449219 35 32C35 32.550781 35.449219 33 36 33C36.550781 33 37 32.550781 37 32C37 31.449219 36.550781 31 36 31 Z M 56 32C55.449219 32 55 32.449219 55 33C55 33.550781 55.449219 34 56 34C56.550781 34 57 33.550781 57 33C57 32.449219 56.550781 32 56 32 Z M 19 35C18.449219 35 18 35.449219 18 36C18 36.550781 18.449219 37 19 37C19.550781 37 20 36.550781 20 36C20 35.449219 19.550781 35 19 35 Z M 23 37C22.449219 37 22 37.449219 22 38C22 38.550781 22.449219 39 23 39C23.550781 39 24 38.550781 24 38C24 37.449219 23.550781 37 23 37 Z M 26 40C25.449219 40 25 40.449219 25 41C25 41.550781 25.449219 42 26 42C26.550781 42 27 41.550781 27 41C27 40.449219 26.550781 40 26 40 Z M 41 42C40.449219 42 40 42.449219 40 43C40 43.550781 40.449219 44 41 44C41.550781 44 42 43.550781 42 43C42 42.449219 41.550781 42 41 42 Z M 69 43C68.449219 43 68 43.449219 68 44C68 44.550781 68.449219 45 69 45C69.550781 45 70 44.550781 70 44C70 43.449219 69.550781 43 69 43 Z M 41 46C40.449219 46 40 46.449219 40 47C40 47.550781 40.449219 48 41 48C41.550781 48 42 47.550781 42 47C42 46.449219 41.550781 46 41 46 Z M 67 46C66.449219 46 66 46.449219 66 47C66 47.550781 66.449219 48 67 48C67.550781 48 68 47.550781 68 47C68 46.449219 67.550781 46 67 46 Z M 40 50L40 75.484375L33.757813 69.242188L32.34375 70.65625L41 79.3125L49.65625 70.65625L48.242188 69.242188L42 75.484375L42 50Z" />
</svg>