<?xml version="1.0" encoding="utf-8"?>
<svg xmlns="http://www.w3.org/2000/svg" viewBox="0 0 50 50" width="100" height="100">
  <path d="M5 9C4.447 9 4 9.448 4 10L4 40C4 40.552 4.447 41 5 41L45 41C45.553 41 46 40.552 46 40L46 10C46 9.448 45.553 9 45 9L5 9 z M 13.505859 18.404297L16.677734 18.404297L15.5625 23.632812L21.027344 23.632812L22.142578 18.404297L25.314453 18.404297L22.509766 31.59375L19.328125 31.59375L20.480469 26.210938L15.013672 26.210938L13.863281 31.59375L10.699219 31.59375L13.505859 18.404297 z M 28.875 18.404297L33.910156 18.404297C37.154156 18.404297 39.183594 20.360922 39.183594 23.669922C39.184594 28.258922 36.342437 31.59375 32.273438 31.59375L26.078125 31.59375L28.875 18.404297 z M 31.525391 20.974609L29.816406 29.025391L31.908203 29.025391C34.248203 29.025391 35.929688 27.060156 35.929688 24.035156C35.930687 22.161156 34.889234 20.974609 33.115234 20.974609L31.525391 20.974609 z" fill="#140A35" />
</svg>