<?xml version="1.0" encoding="utf-8"?>
<svg xmlns="http://www.w3.org/2000/svg" viewBox="0 0 30 30" width="60" height="60">
  <path d="M15 3C8.7221607 3 3.562075 7.8516588 3.0507812 14L0 14L4 20L8 14L5.0488281 14C5.5490109 8.9379267 9.80344 5 15 5C17.483398 5 19.74593 5.9000929 21.494141 7.3945312 A 1.0001 1.0001 0 1 0 22.792969 5.875C20.69718 4.0834384 17.968602 3 15 3 z M 26 10L22 16L24.951172 16C24.450989 21.062074 20.19656 25 15 25C12.516602 25 10.25407 24.099907 8.5058594 22.605469 A 1.0001 1.0001 0 1 0 7.2070312 24.125C9.3028202 25.916562 12.031398 27 15 27C21.277839 27 26.437925 22.148341 26.949219 16L30 16L26 10 z" fill="#FFFFFF" />
</svg>